<svg preserveAspectRatio="none" overflow="visible" style="display: block;" width="64" height="59" viewBox="0 0 64 59" fill="none" xmlns="http://www.w3.org/2000/svg">
<path id="Vector" d="M32 41.9444V57.5M44.2 37.7102V57.5M56.4 25.3187V57.5M62.5 1.5L36.1297 28.3987C35.988 28.5435 35.8198 28.6585 35.6345 28.7369C35.4492 28.8153 35.2506 28.8557 35.05 28.8557C34.8494 28.8557 34.6508 28.8153 34.4655 28.7369C34.2802 28.6585 34.112 28.5435 33.9703 28.3987L23.9297 18.1569C23.6437 17.8653 23.2559 17.7014 22.8515 17.7014C22.4471 17.7014 22.0593 17.8653 21.7734 18.1569L1.5 38.8333M7.6 49.6071V57.5M19.8 37.7631V57.5" stroke="#D1E895" stroke-width="3" stroke-linecap="round" stroke-linejoin="round"/>
</svg>
